<svg width="36" height="36" viewBox="0 0 36 36" fill="none" xmlns="http://www.w3.org/2000/svg">
<path d="M20.5 26.3334V23.0001C20.6159 21.9562 20.3166 20.9085 19.6667 20.0834C22.1667 20.0834 24.6667 18.4167 24.6667 15.5001C24.7333 14.4584 24.4417 13.4334 23.8333 12.5834C24.0667 11.6251 24.0667 10.6251 23.8333 9.66675C23.8333 9.66675 23 9.66675 21.3333 10.9167C19.1333 10.5001 16.8667 10.5001 14.6667 10.9167C13 9.66675 12.1667 9.66675 12.1667 9.66675C11.9167 10.6251 11.9167 11.6251 12.1667 12.5834C11.5599 13.43 11.2654 14.4607 11.3333 15.5001C11.3333 18.4167 13.8333 20.0834 16.3333 20.0834C16.0083 20.4917 15.7667 20.9584 15.625 21.4584C15.4833 21.9584 15.4417 22.4834 15.5 23.0001V26.3334" stroke="#6B7280" stroke-width="1.66667" stroke-linecap="round" stroke-linejoin="round"/>
<path d="M15.5 22.9999C11.7417 24.6666 11.3333 21.3333 9.66667 21.3333" stroke="#6B7280" stroke-width="1.66667" stroke-linecap="round" stroke-linejoin="round"/>
</svg>
