<svg width="141" height="30" viewBox="0 0 141 30" fill="none" xmlns="http://www.w3.org/2000/svg">
<rect y="2" width="141" height="28" rx="5" fill="black"/>
<path d="M13.9599 20V12.0727H18.7442V12.9243H14.9199V15.6028H18.4964V16.4544H14.9199V19.1484H18.8061V20H13.9599ZM22.5956 20.1239C22.1001 20.1239 21.6627 19.9987 21.2834 19.7484C20.904 19.4955 20.6073 19.1394 20.3931 18.6801C20.1789 18.2182 20.0718 17.6724 20.0718 17.0428C20.0718 16.4183 20.1789 15.8764 20.3931 15.417C20.6073 14.9577 20.9053 14.6029 21.2873 14.3526C21.6692 14.1023 22.1104 13.9771 22.611 13.9771C22.9981 13.9771 23.3039 14.0416 23.5284 14.1707C23.7555 14.2971 23.9284 14.4416 24.0471 14.6042C24.1684 14.7642 24.2626 14.8958 24.3297 14.999H24.4071V12.0727H25.3206V20H24.438V19.0865H24.3297C24.2626 19.1949 24.1671 19.3317 24.0432 19.4968C23.9194 19.6594 23.7426 19.8052 23.5129 19.9342C23.2833 20.0606 22.9775 20.1239 22.5956 20.1239ZM22.7194 19.3033C23.0859 19.3033 23.3955 19.2078 23.6484 19.0168C23.9013 18.8233 24.0935 18.5562 24.2251 18.2156C24.3567 17.8724 24.4225 17.4763 24.4225 17.0273C24.4225 16.5834 24.358 16.1951 24.229 15.8622C24.1 15.5267 23.909 15.2661 23.6561 15.0803C23.4033 14.8919 23.091 14.7977 22.7194 14.7977C22.3324 14.7977 22.0098 14.8971 21.7517 15.0958C21.4963 15.2919 21.304 15.559 21.175 15.897C21.0486 16.2325 20.9853 16.6092 20.9853 17.0273C20.9853 17.4505 21.0498 17.835 21.1789 18.1808C21.3105 18.524 21.504 18.7975 21.7595 19.0013C22.0175 19.2026 22.3375 19.3033 22.7194 19.3033ZM27.1205 20V14.0545H28.0339V20H27.1205ZM27.5849 13.0636C27.4069 13.0636 27.2533 13.003 27.1243 12.8817C26.9979 12.7604 26.9347 12.6146 26.9347 12.4443C26.9347 12.274 26.9979 12.1282 27.1243 12.0069C27.2533 11.8856 27.4069 11.825 27.5849 11.825C27.763 11.825 27.9152 11.8856 28.0417 12.0069C28.1707 12.1282 28.2352 12.274 28.2352 12.4443C28.2352 12.6146 28.1707 12.7604 28.0417 12.8817C27.9152 13.003 27.763 13.0636 27.5849 13.0636ZM32.2927 14.0545V14.8287H29.2116V14.0545H32.2927ZM30.1096 12.6301H31.0231V18.2969C31.0231 18.5549 31.0605 18.7485 31.1354 18.8775C31.2128 19.0039 31.3109 19.0891 31.4296 19.133C31.5508 19.1742 31.6786 19.1949 31.8128 19.1949C31.9134 19.1949 31.996 19.1897 32.0605 19.1794C32.125 19.1665 32.1766 19.1562 32.2153 19.1484L32.4011 19.969C32.3392 19.9923 32.2527 20.0155 32.1418 20.0387C32.0308 20.0645 31.8902 20.0774 31.7199 20.0774C31.4618 20.0774 31.2089 20.0219 30.9612 19.911C30.716 19.8 30.5122 19.631 30.3496 19.4039C30.1896 19.1768 30.1096 18.8904 30.1096 18.5446V12.6301ZM38.0795 20L36.268 14.0545H37.2279L38.513 18.6065H38.5749L39.8445 14.0545H40.82L42.0741 18.5911H42.136L43.4211 14.0545H44.381L42.5695 20H41.6715L40.371 15.4325H40.2781L38.9775 20H38.0795ZM45.5887 20V14.0545H46.5022V20H45.5887ZM46.0532 13.0636C45.8752 13.0636 45.7216 13.003 45.5926 12.8817C45.4661 12.7604 45.4029 12.6146 45.4029 12.4443C45.4029 12.274 45.4661 12.1282 45.5926 12.0069C45.7216 11.8856 45.8752 11.825 46.0532 11.825C46.2313 11.825 46.3835 11.8856 46.51 12.0069C46.639 12.1282 46.7035 12.274 46.7035 12.4443C46.7035 12.6146 46.639 12.7604 46.51 12.8817C46.3835 13.003 46.2313 13.0636 46.0532 13.0636ZM50.761 14.0545V14.8287H47.6799V14.0545H50.761ZM48.5779 12.6301H49.4914V18.2969C49.4914 18.5549 49.5288 18.7485 49.6036 18.8775C49.6811 19.0039 49.7791 19.0891 49.8978 19.133C50.0191 19.1742 50.1468 19.1949 50.281 19.1949C50.3817 19.1949 50.4642 19.1897 50.5287 19.1794C50.5933 19.1665 50.6449 19.1562 50.6836 19.1484L50.8694 19.969C50.8074 19.9923 50.721 20.0155 50.61 20.0387C50.4991 20.0645 50.3584 20.0774 50.1881 20.0774C49.9301 20.0774 49.6772 20.0219 49.4295 19.911C49.1843 19.8 48.9804 19.631 48.8179 19.4039C48.6579 19.1768 48.5779 18.8904 48.5779 18.5446V12.6301ZM53.1763 16.4234V20H52.2628V12.0727H53.1763V14.9835H53.2537C53.3931 14.6764 53.6021 14.4326 53.8808 14.252C54.1621 14.0687 54.5363 13.9771 55.0033 13.9771C55.4085 13.9771 55.7633 14.0584 56.0678 14.221C56.3723 14.381 56.6084 14.6274 56.7761 14.9603C56.9464 15.2906 57.0316 15.7112 57.0316 16.2222V20H56.1181V16.2841C56.1181 15.8119 55.9955 15.4467 55.7504 15.1887C55.5078 14.928 55.1711 14.7977 54.7401 14.7977C54.4408 14.7977 54.1724 14.8609 53.935 14.9874C53.7002 15.1138 53.5144 15.2983 53.3776 15.5409C53.2434 15.7835 53.1763 16.0777 53.1763 16.4234Z" fill="#A1A1AA"/>
<path d="M118.435 21.2319C117.681 21.2319 117.025 21.0881 116.469 20.8004C115.912 20.508 115.478 20.0694 115.167 19.4846C114.86 18.8998 114.707 18.176 114.707 17.3129C114.707 16.4923 114.867 15.7849 115.188 15.1907C115.509 14.5918 115.952 14.1367 116.518 13.8254C117.084 13.5142 117.728 13.3585 118.449 13.3585C119.142 13.3585 119.758 13.5094 120.296 13.8113C120.833 14.1131 121.251 14.5517 121.547 15.127C121.849 15.7024 122.001 16.3909 122.001 17.1926C122.001 17.4803 121.998 17.709 121.993 17.8789H116.355V16.3933H120.628L119.821 16.6692C119.821 16.2824 119.765 15.9594 119.652 15.7C119.543 15.4359 119.383 15.2379 119.171 15.1058C118.959 14.9738 118.702 14.9077 118.399 14.9077C118.083 14.9077 117.805 14.9855 117.565 15.1412C117.329 15.2921 117.145 15.5185 117.013 15.8203C116.886 16.1221 116.822 16.4852 116.822 16.9097V17.6383C116.822 18.0722 116.888 18.4401 117.02 18.7419C117.152 19.0437 117.341 19.2724 117.586 19.428C117.832 19.579 118.121 19.6544 118.456 19.6544C118.824 19.6544 119.128 19.5601 119.369 19.3715C119.609 19.1781 119.76 18.9069 119.821 18.5579H121.965C121.899 19.105 121.712 19.579 121.406 19.9798C121.104 20.3807 120.701 20.6896 120.196 20.9065C119.692 21.1235 119.104 21.2319 118.435 21.2319Z" fill="#FCFBF8"/>
<path d="M111.922 10.8824H114.066V21.0266H111.922V10.8824Z" fill="#FCFBF8"/>
<path d="M108.275 21.2318C107.869 21.2318 107.506 21.161 107.186 21.0195C106.87 20.878 106.601 20.6659 106.379 20.3829C106.157 20.0952 105.992 19.7415 105.884 19.3218L106.11 19.3854V21.0266H103.988V13.5635H106.132V15.233L105.891 15.2754C105.999 14.8746 106.165 14.5326 106.386 14.2497C106.613 13.962 106.888 13.7427 107.214 13.5918C107.539 13.4362 107.905 13.3584 108.31 13.3584C108.919 13.3584 109.447 13.5163 109.895 13.8323C110.343 14.1483 110.687 14.6034 110.928 15.1976C111.168 15.7871 111.288 16.4874 111.288 17.2986C111.288 18.105 111.166 18.8053 110.921 19.3996C110.675 19.9891 110.324 20.4418 109.867 20.7578C109.414 21.0738 108.883 21.2318 108.275 21.2318ZM107.61 19.5977C107.931 19.5977 108.2 19.5034 108.416 19.3147C108.638 19.126 108.803 18.8596 108.912 18.5153C109.025 18.171 109.081 17.7655 109.081 17.2986C109.081 16.8317 109.025 16.4261 108.912 16.0819C108.803 15.7376 108.638 15.4711 108.416 15.2825C108.2 15.0891 107.931 14.9925 107.61 14.9925C107.294 14.9925 107.023 15.0891 106.797 15.2825C106.575 15.4711 106.407 15.74 106.294 16.0889C106.181 16.4332 106.124 16.8364 106.124 17.2986C106.124 17.7655 106.181 18.171 106.294 18.5153C106.407 18.8596 106.575 19.126 106.797 19.3147C107.023 19.5034 107.294 19.5977 107.61 19.5977ZM103.988 10.8824H106.132V13.5635H103.988V10.8824Z" fill="#FCFBF8"/>
<path d="M98.6077 21.2319C98.1409 21.2319 97.7211 21.14 97.3486 20.956C96.9807 20.7721 96.6907 20.5104 96.4785 20.1708C96.2709 19.8265 96.1672 19.4257 96.1672 18.9682C96.1672 18.2703 96.3723 17.7373 96.7826 17.3695C97.1929 16.997 97.7848 16.7541 98.5582 16.6409L99.8528 16.457C100.112 16.4192 100.317 16.3721 100.468 16.3155C100.619 16.2589 100.73 16.1834 100.801 16.0891C100.871 15.99 100.907 15.8651 100.907 15.7142C100.907 15.5586 100.864 15.4171 100.779 15.2897C100.699 15.1577 100.577 15.0539 100.412 14.9785C100.251 14.8983 100.056 14.8582 99.8244 14.8582C99.4566 14.8582 99.1618 14.9549 98.9402 15.1483C98.7186 15.3369 98.5983 15.5963 98.5794 15.9264H96.3653C96.3841 15.4265 96.535 14.9832 96.818 14.5965C97.1057 14.205 97.5042 13.9009 98.0135 13.6839C98.5228 13.467 99.1123 13.3585 99.782 13.3585C100.485 13.3585 101.079 13.4741 101.565 13.7051C102.05 13.9315 102.416 14.2569 102.661 14.6814C102.911 15.1058 103.036 15.6128 103.036 16.2023V19.3149C103.036 19.6497 103.06 19.961 103.107 20.2486C103.159 20.5316 103.232 20.7108 103.326 20.7863V21.0268H101.098C101.046 20.824 101.006 20.5952 100.978 20.3406C100.949 20.0859 100.933 19.8171 100.928 19.5341L101.275 19.3856C101.185 19.7204 101.02 20.0293 100.779 20.3123C100.544 20.5905 100.239 20.8146 99.8669 20.9843C99.499 21.1494 99.0793 21.2319 98.6077 21.2319ZM99.4 19.6615C99.7018 19.6615 99.9683 19.5955 100.199 19.4634C100.43 19.3267 100.607 19.138 100.73 18.8975C100.857 18.657 100.921 18.3834 100.921 18.0769V17.1007L101.098 17.1997C100.985 17.3506 100.843 17.4662 100.673 17.5464C100.508 17.6265 100.284 17.6949 100.001 17.7515L99.4566 17.8576C99.0935 17.9284 98.8199 18.0368 98.636 18.183C98.4568 18.3292 98.3672 18.5344 98.3672 18.7985C98.3672 19.0626 98.4639 19.2724 98.6572 19.428C98.8506 19.5837 99.0982 19.6615 99.4 19.6615Z" fill="#FCFBF8"/>
<path d="M88.8769 13.5636H91.1548L93.1142 19.9656H92.4281L94.3098 13.5636H96.5239L93.9419 21.0267H91.558L88.8769 13.5636Z" fill="#FCFBF8"/>
<path d="M85.5265 21.2319C84.7861 21.2319 84.1353 21.0716 83.5741 20.7509C83.0176 20.4302 82.586 19.9727 82.2795 19.3785C81.9777 18.7843 81.8268 18.0887 81.8268 17.2917C81.8268 16.4947 81.9777 15.8014 82.2795 15.2119C82.586 14.6177 83.0176 14.1602 83.5741 13.8396C84.1353 13.5189 84.7861 13.3585 85.5265 13.3585C86.2669 13.3585 86.9154 13.5189 87.4719 13.8396C88.0284 14.1602 88.4575 14.6177 88.7593 15.2119C89.0659 15.8014 89.2191 16.4947 89.2191 17.2917C89.2191 18.0887 89.0659 18.7843 88.7593 19.3785C88.4575 19.9727 88.0284 20.4302 87.4719 20.7509C86.9154 21.0716 86.2669 21.2319 85.5265 21.2319ZM85.5265 19.5908C85.8377 19.5908 86.1042 19.5058 86.3259 19.3361C86.5475 19.1616 86.7173 18.9045 86.8352 18.565C86.9531 18.2207 87.012 17.7963 87.012 17.2917C87.012 16.5418 86.8824 15.9735 86.623 15.5869C86.3636 15.1954 85.9981 14.9997 85.5265 14.9997C85.2152 14.9997 84.9464 15.0869 84.7201 15.2614C84.4984 15.4312 84.3286 15.6882 84.2107 16.0325C84.0928 16.3721 84.0339 16.7918 84.0339 17.2917C84.0339 17.7916 84.0928 18.2137 84.2107 18.5579C84.3286 18.9022 84.4984 19.1616 84.7201 19.3361C84.9464 19.5058 85.2152 19.5908 85.5265 19.5908Z" fill="#FCFBF8"/>
<path d="M75.5618 10.8826H77.7831V19.446L77.387 18.9862C77.387 18.9862 78.4871 18.9862 80.3797 18.9862C82.2722 18.9862 82.0134 21.0268 82.0134 21.0268H75.5618V10.8826Z" fill="#FCFBF8"/>
<mask id="mask0_11_215" style="mask-type:alpha" maskUnits="userSpaceOnUse" x="62" y="10" width="11" height="12">
<path fill-rule="evenodd" clip-rule="evenodd" d="M65.0538 10.7682C66.7404 10.7682 68.1076 12.139 68.1076 13.8301V14.9938H69.124C70.8105 14.9938 72.1778 16.3646 72.1778 18.0556C72.1778 19.7467 70.8105 21.1175 69.124 21.1175H62V13.8301C62 12.139 63.3672 10.7682 65.0538 10.7682Z" fill="url(#paint0_linear_11_215)"/>
</mask>
<g mask="url(#mask0_11_215)">
<g filter="url(#filter0_f_11_215)">
<path d="M66.4646 23.1823C70.2696 23.1823 73.3542 20.0977 73.3542 16.2927C73.3542 12.4877 70.2696 9.40308 66.4646 9.40308C62.6596 9.40308 59.575 12.4877 59.575 16.2927C59.575 20.0977 62.6596 23.1823 66.4646 23.1823Z" fill="#4B73FF"/>
</g>
<g filter="url(#filter1_f_11_215)">
<path d="M67.2215 19.4014C72.0947 19.4014 76.0452 16.3168 76.0452 12.5118C76.0452 8.70677 72.0947 5.62219 67.2215 5.62219C62.3483 5.62219 58.3978 8.70677 58.3978 12.5118C58.3978 16.3168 62.3483 19.4014 67.2215 19.4014Z" fill="#FF66F4"/>
</g>
<g filter="url(#filter2_f_11_215)">
<path d="M68.6608 17.2659C72.4658 17.2659 75.5504 14.5569 75.5504 11.2153C75.5504 7.87371 72.4658 5.16479 68.6608 5.16479C64.8558 5.16479 61.7712 7.87371 61.7712 11.2153C61.7712 14.5569 64.8558 17.2659 68.6608 17.2659Z" fill="#FF0105"/>
</g>
<g filter="url(#filter3_f_11_215)">
<path d="M67.3441 16.6533C69.6324 16.6533 71.4874 14.7983 71.4874 12.5099C71.4874 10.2216 69.6324 8.36658 67.3441 8.36658C65.0557 8.36658 63.2007 10.2216 63.2007 12.5099C63.2007 14.7983 65.0557 16.6533 67.3441 16.6533Z" fill="#FE7B02"/>
</g>
</g>
<path d="M135.236 15.2045L129.628 9.59659L130.384 8.84091L135.992 14.4489L135.236 15.2045ZM130.384 15.2045L129.628 14.4489L135.236 8.84091L135.992 9.59659L130.384 15.2045Z" fill="#A1A1AA"/>
<defs>
<filter id="filter0_f_11_215" x="56.4874" y="6.31543" width="19.9545" height="19.9545" filterUnits="userSpaceOnUse" color-interpolation-filters="sRGB">
<feFlood flood-opacity="0" result="BackgroundImageFix"/>
<feBlend mode="normal" in="SourceGraphic" in2="BackgroundImageFix" result="shape"/>
<feGaussianBlur stdDeviation="1.54382" result="effect1_foregroundBlur_11_215"/>
</filter>
<filter id="filter1_f_11_215" x="55.3102" y="2.53455" width="23.8226" height="19.9545" filterUnits="userSpaceOnUse" color-interpolation-filters="sRGB">
<feFlood flood-opacity="0" result="BackgroundImageFix"/>
<feBlend mode="normal" in="SourceGraphic" in2="BackgroundImageFix" result="shape"/>
<feGaussianBlur stdDeviation="1.54382" result="effect1_foregroundBlur_11_215"/>
</filter>
<filter id="filter2_f_11_215" x="58.6835" y="2.07715" width="19.9545" height="18.2764" filterUnits="userSpaceOnUse" color-interpolation-filters="sRGB">
<feFlood flood-opacity="0" result="BackgroundImageFix"/>
<feBlend mode="normal" in="SourceGraphic" in2="BackgroundImageFix" result="shape"/>
<feGaussianBlur stdDeviation="1.54382" result="effect1_foregroundBlur_11_215"/>
</filter>
<filter id="filter3_f_11_215" x="60.113" y="5.27894" width="14.462" height="14.462" filterUnits="userSpaceOnUse" color-interpolation-filters="sRGB">
<feFlood flood-opacity="0" result="BackgroundImageFix"/>
<feBlend mode="normal" in="SourceGraphic" in2="BackgroundImageFix" result="shape"/>
<feGaussianBlur stdDeviation="1.54382" result="effect1_foregroundBlur_11_215"/>
</filter>
<linearGradient id="paint0_linear_11_215" x1="65.425" y1="12.5869" x2="68.5258" y2="21.1136" gradientUnits="userSpaceOnUse">
<stop offset="0.025" stop-color="#FF8E63"/>
<stop offset="0.56" stop-color="#FF7EB0"/>
<stop offset="0.95" stop-color="#4B73FF"/>
</linearGradient>
</defs>
</svg>
