<svg width="36" height="36" viewBox="0 0 36 36" fill="none" xmlns="http://www.w3.org/2000/svg">
<path d="M21.3333 14.6667C22.6594 14.6667 23.9312 15.1935 24.8689 16.1312C25.8066 17.0689 26.3333 18.3407 26.3333 19.6667V25.5001H23V19.6667C23 19.2247 22.8244 18.8008 22.5118 18.4882C22.1993 18.1757 21.7754 18.0001 21.3333 18.0001C20.8913 18.0001 20.4674 18.1757 20.1548 18.4882C19.8423 18.8008 19.6667 19.2247 19.6667 19.6667V25.5001H16.3333V19.6667C16.3333 18.3407 16.8601 17.0689 17.7978 16.1312C18.7355 15.1935 20.0073 14.6667 21.3333 14.6667Z" stroke="#6B7280" stroke-width="1.66667" stroke-linecap="round" stroke-linejoin="round"/>
<path d="M13 15.5H9.66666V25.5H13V15.5Z" stroke="#6B7280" stroke-width="1.66667" stroke-linecap="round" stroke-linejoin="round"/>
<path d="M11.3333 13.0001C12.2538 13.0001 13 12.2539 13 11.3334C13 10.4129 12.2538 9.66675 11.3333 9.66675C10.4129 9.66675 9.66666 10.4129 9.66666 11.3334C9.66666 12.2539 10.4129 13.0001 11.3333 13.0001Z" stroke="#6B7280" stroke-width="1.66667" stroke-linecap="round" stroke-linejoin="round"/>
</svg>
