<svg width="101" height="28" viewBox="0 0 101 28" fill="none" xmlns="http://www.w3.org/2000/svg">
<path d="M12 5H5C4.46957 5 3.96086 5.21071 3.58579 5.58579C3.21071 5.96086 3 6.46957 3 7V21C3 21.5304 3.21071 22.0391 3.58579 22.4142C3.96086 22.7893 4.46957 23 5 23H19C19.5304 23 20.0391 22.7893 20.4142 22.4142C20.7893 22.0391 21 21.5304 21 21V14" stroke="#4346EF" stroke-width="2" stroke-linecap="round" stroke-linejoin="round"/>
<path d="M18.375 4.625C18.7728 4.22717 19.3124 4.00368 19.875 4.00368C20.4376 4.00368 20.9771 4.22717 21.375 4.625C21.7728 5.02282 21.9963 5.56239 21.9963 6.125C21.9963 6.68761 21.7728 7.22717 21.375 7.625L12.362 16.639C12.1245 16.8762 11.8312 17.0499 11.509 17.144L8.63597 17.984C8.54992 18.0091 8.45871 18.0106 8.37188 17.9884C8.28505 17.9661 8.2058 17.9209 8.14242 17.8576C8.07904 17.7942 8.03386 17.7149 8.01162 17.6281C7.98937 17.5413 7.99087 17.45 8.01597 17.364L8.85597 14.491C8.9505 14.169 9.12451 13.8761 9.36197 13.639L18.375 4.625Z" stroke="#4346EF" stroke-width="2" stroke-linecap="round" stroke-linejoin="round"/>
<path d="M33.2642 21V6.45455H39.0881C40.1581 6.45455 41.0507 6.61316 41.7656 6.9304C42.4806 7.24763 43.018 7.68797 43.3778 8.25142C43.7377 8.81013 43.9176 9.45407 43.9176 10.1832C43.9176 10.7514 43.804 11.2509 43.5767 11.6818C43.3494 12.108 43.0369 12.4583 42.6392 12.733C42.2462 13.0028 41.7964 13.1946 41.2898 13.3082V13.4503C41.8438 13.474 42.3622 13.6302 42.8452 13.919C43.3329 14.2079 43.7282 14.6127 44.0312 15.1335C44.3343 15.6496 44.4858 16.2652 44.4858 16.9801C44.4858 17.7519 44.294 18.4408 43.9105 19.0469C43.5317 19.6482 42.9706 20.1241 42.2273 20.4744C41.4839 20.8248 40.5677 21 39.4787 21H33.2642ZM36.3395 18.4858H38.8466C39.7036 18.4858 40.3286 18.3224 40.7216 17.9957C41.1146 17.6643 41.3111 17.224 41.3111 16.6747C41.3111 16.2723 41.214 15.9171 41.0199 15.6094C40.8258 15.3016 40.5488 15.0601 40.1889 14.8849C39.8338 14.7098 39.41 14.6222 38.9176 14.6222H36.3395V18.4858ZM36.3395 12.5412H38.6193C39.0407 12.5412 39.4148 12.4678 39.7415 12.321C40.0729 12.1695 40.3333 11.9564 40.5227 11.6818C40.7169 11.4072 40.8139 11.0781 40.8139 10.6946C40.8139 10.169 40.6269 9.74527 40.2528 9.4233C39.8835 9.10133 39.358 8.94034 38.6761 8.94034H36.3395V12.5412ZM49.4556 6.45455V21H46.43V6.45455H49.4556ZM56.8082 21.2131C55.705 21.2131 54.7509 20.9787 53.946 20.5099C53.1458 20.0365 52.5279 19.3783 52.0923 18.5355C51.6567 17.688 51.4389 16.7055 51.4389 15.5881C51.4389 14.4612 51.6567 13.4763 52.0923 12.6335C52.5279 11.786 53.1458 11.1278 53.946 10.6591C54.7509 10.1856 55.705 9.94886 56.8082 9.94886C57.9115 9.94886 58.8632 10.1856 59.6634 10.6591C60.4683 11.1278 61.0885 11.786 61.5241 12.6335C61.9598 13.4763 62.1776 14.4612 62.1776 15.5881C62.1776 16.7055 61.9598 17.688 61.5241 18.5355C61.0885 19.3783 60.4683 20.0365 59.6634 20.5099C58.8632 20.9787 57.9115 21.2131 56.8082 21.2131ZM56.8224 18.8693C57.3243 18.8693 57.7434 18.7273 58.0795 18.4432C58.4157 18.1544 58.669 17.7614 58.8395 17.2642C59.0147 16.767 59.1023 16.2012 59.1023 15.5668C59.1023 14.9323 59.0147 14.3665 58.8395 13.8693C58.669 13.3722 58.4157 12.9792 58.0795 12.6903C57.7434 12.4015 57.3243 12.2571 56.8224 12.2571C56.3158 12.2571 55.8897 12.4015 55.544 12.6903C55.2031 12.9792 54.9451 13.3722 54.7699 13.8693C54.5994 14.3665 54.5142 14.9323 54.5142 15.5668C54.5142 16.2012 54.5994 16.767 54.7699 17.2642C54.9451 17.7614 55.2031 18.1544 55.544 18.4432C55.8897 18.7273 56.3158 18.8693 56.8224 18.8693ZM69.0597 25.3182C68.0795 25.3182 67.2391 25.1832 66.5384 24.9134C65.8423 24.6482 65.2884 24.286 64.8764 23.8267C64.4645 23.3674 64.197 22.8513 64.0739 22.2784L66.8722 21.902C66.9574 22.1198 67.0923 22.3234 67.277 22.5128C67.4616 22.7022 67.7055 22.8537 68.0085 22.9673C68.3163 23.0857 68.6903 23.1449 69.1307 23.1449C69.7888 23.1449 70.331 22.9839 70.7571 22.6619C71.188 22.3447 71.4034 21.812 71.4034 21.0639V19.0682H71.2756C71.143 19.3712 70.9441 19.6577 70.679 19.9276C70.4138 20.1974 70.0729 20.4176 69.6562 20.5881C69.2396 20.7585 68.7424 20.8438 68.1648 20.8438C67.3456 20.8438 66.5999 20.6544 65.9276 20.2756C65.2599 19.892 64.7273 19.3073 64.3295 18.5213C63.9366 17.7306 63.7401 16.7315 63.7401 15.5241C63.7401 14.2884 63.9413 13.2562 64.3438 12.4276C64.7462 11.599 65.2813 10.9787 65.9489 10.5668C66.6212 10.1548 67.3575 9.94886 68.1577 9.94886C68.7685 9.94886 69.2798 10.053 69.6918 10.2614C70.1037 10.465 70.4351 10.7206 70.6861 11.0284C70.9418 11.3314 71.1383 11.6297 71.2756 11.9233H71.3892V10.0909H74.3935V21.1065C74.3935 22.0346 74.1662 22.8111 73.7116 23.4361C73.2571 24.0611 72.6274 24.5298 71.8224 24.8423C71.0223 25.1596 70.1013 25.3182 69.0597 25.3182ZM69.1236 18.571C69.6113 18.571 70.0232 18.4503 70.3594 18.2088C70.7003 17.9626 70.9607 17.6122 71.1406 17.1577C71.3253 16.6984 71.4176 16.1491 71.4176 15.5099C71.4176 14.8707 71.3277 14.3168 71.1477 13.848C70.9678 13.3745 70.7074 13.0076 70.3665 12.7472C70.0256 12.4867 69.6113 12.3565 69.1236 12.3565C68.6264 12.3565 68.2074 12.4915 67.8665 12.7614C67.5256 13.0265 67.2675 13.3958 67.0923 13.8693C66.9171 14.3428 66.8295 14.8897 66.8295 15.5099C66.8295 16.1397 66.9171 16.6842 67.0923 17.1435C67.2723 17.598 67.5303 17.9508 67.8665 18.2017C68.2074 18.4479 68.6264 18.571 69.1236 18.571ZM76.8011 21V10.0909H79.8267V21H76.8011ZM78.321 8.68466C77.8712 8.68466 77.4853 8.53551 77.1634 8.23722C76.8461 7.93419 76.6875 7.57197 76.6875 7.15057C76.6875 6.7339 76.8461 6.37642 77.1634 6.07812C77.4853 5.77509 77.8712 5.62358 78.321 5.62358C78.7708 5.62358 79.1544 5.77509 79.4716 6.07812C79.7936 6.37642 79.9545 6.7339 79.9545 7.15057C79.9545 7.57197 79.7936 7.93419 79.4716 8.23722C79.1544 8.53551 78.7708 8.68466 78.321 8.68466ZM88.1168 10.0909V12.3636H81.3839V10.0909H88.1168ZM82.9251 21V9.30256C82.9251 8.51184 83.079 7.85606 83.3867 7.33523C83.6992 6.81439 84.1254 6.42377 84.6651 6.16335C85.2049 5.90293 85.8181 5.77273 86.5046 5.77273C86.9686 5.77273 87.3924 5.80824 87.7759 5.87926C88.1642 5.95028 88.453 6.0142 88.6424 6.07102L88.1026 8.34375C87.9843 8.30587 87.8375 8.27036 87.6623 8.23722C87.4918 8.20407 87.3166 8.1875 87.1367 8.1875C86.6916 8.1875 86.3815 8.29167 86.2063 8.5C86.0311 8.7036 85.9435 8.99006 85.9435 9.35938V21H82.9251ZM91.8331 25.0909C91.4496 25.0909 91.0897 25.0601 90.7536 24.9986C90.4221 24.9418 90.1475 24.8684 89.9297 24.7784L90.6115 22.5199C90.9666 22.6288 91.2862 22.688 91.5703 22.6974C91.8591 22.7069 92.1077 22.6406 92.3161 22.4986C92.5291 22.3565 92.7019 22.1151 92.8345 21.7741L93.0121 21.3125L89.0987 10.0909H92.2805L94.5391 18.1023H94.6527L96.9325 10.0909H100.136L95.8956 22.179C95.692 22.7661 95.415 23.2775 95.0646 23.7131C94.719 24.1534 94.281 24.492 93.7507 24.7287C93.2204 24.9702 92.5812 25.0909 91.8331 25.0909Z" fill="url(#paint0_linear_11_201)"/>
<defs>
<linearGradient id="paint0_linear_11_201" x1="42.248" y1="-10.245" x2="90.738" y2="38.2591" gradientUnits="userSpaceOnUse">
<stop stop-color="#4346EF"/>
<stop offset="1" stop-color="#8524E5"/>
</linearGradient>
</defs>
</svg>
