<svg width="48" height="48" viewBox="0 0 48 48" fill="none" xmlns="http://www.w3.org/2000/svg">
<rect width="48" height="48" rx="12" fill="#4346EF" fill-opacity="0.1"/>
<path d="M16 26C15.8108 26.0007 15.6252 25.9476 15.4649 25.847C15.3047 25.7464 15.1762 25.6024 15.0945 25.4317C15.0129 25.261 14.9813 25.0706 15.0035 24.8827C15.0257 24.6948 15.1008 24.517 15.22 24.37L25.12 14.17C25.1943 14.0843 25.2955 14.0264 25.407 14.0058C25.5185 13.9852 25.6337 14.0031 25.7337 14.0565C25.8337 14.11 25.9126 14.1959 25.9573 14.3001C26.0021 14.4044 26.0101 14.5207 25.98 14.63L24.06 20.65C24.0034 20.8016 23.9844 20.9646 24.0046 21.125C24.0248 21.2855 24.0837 21.4387 24.1761 21.5715C24.2685 21.7042 24.3918 21.8126 24.5353 21.8872C24.6788 21.9618 24.8382 22.0006 25 22H32C32.1892 21.9994 32.3748 22.0525 32.535 22.1531C32.6953 22.2537 32.8238 22.3977 32.9054 22.5684C32.9871 22.7391 33.0187 22.9295 32.9965 23.1174C32.9743 23.3053 32.8992 23.4831 32.78 23.63L22.88 33.83C22.8057 33.9158 22.7045 33.9737 22.593 33.9943C22.4815 34.0149 22.3663 33.997 22.2663 33.9435C22.1663 33.89 22.0874 33.8041 22.0427 33.6999C21.9979 33.5957 21.9899 33.4794 22.02 33.37L23.94 27.35C23.9966 27.1985 24.0156 27.0355 23.9954 26.875C23.9752 26.7145 23.9163 26.5614 23.8239 26.4286C23.7315 26.2959 23.6082 26.1875 23.4647 26.1129C23.3212 26.0382 23.1617 25.9995 23 26H16Z" stroke="#4346EF" stroke-width="2" stroke-linecap="round" stroke-linejoin="round"/>
</svg>
