<svg width="48" height="48" viewBox="0 0 48 48" fill="none" xmlns="http://www.w3.org/2000/svg">
<rect width="48" height="48" rx="12" fill="#4346EF" fill-opacity="0.1"/>
<path d="M24.22 14H23.78C23.2496 14 22.7409 14.2107 22.3658 14.5858C21.9907 14.9609 21.78 15.4696 21.78 16V16.18C21.7796 16.5307 21.6871 16.8752 21.5115 17.1788C21.336 17.4825 21.0837 17.7346 20.78 17.91L20.35 18.16C20.046 18.3355 19.7011 18.4279 19.35 18.4279C18.9989 18.4279 18.654 18.3355 18.35 18.16L18.2 18.08C17.7411 17.8153 17.1958 17.7434 16.684 17.8803C16.1722 18.0172 15.7356 18.3515 15.47 18.81L15.25 19.19C14.9853 19.6489 14.9134 20.1942 15.0503 20.706C15.1872 21.2178 15.5215 21.6544 15.98 21.92L16.13 22.02C16.4323 22.1945 16.6836 22.4451 16.8591 22.7468C17.0345 23.0486 17.1279 23.391 17.13 23.74V24.25C17.1314 24.6024 17.0397 24.949 16.864 25.2545C16.6884 25.5601 16.4352 25.8138 16.13 25.99L15.98 26.08C15.5215 26.3456 15.1872 26.7822 15.0503 27.294C14.9134 27.8058 14.9853 28.3511 15.25 28.81L15.47 29.19C15.7356 29.6485 16.1722 29.9828 16.684 30.1197C17.1958 30.2566 17.7411 30.1847 18.2 29.92L18.35 29.84C18.654 29.6645 18.9989 29.5721 19.35 29.5721C19.7011 29.5721 20.046 29.6645 20.35 29.84L20.78 30.09C21.0837 30.2654 21.336 30.5175 21.5115 30.8212C21.6871 31.1248 21.7796 31.4693 21.78 31.82V32C21.78 32.5304 21.9907 33.0391 22.3658 33.4142C22.7409 33.7893 23.2496 34 23.78 34H24.22C24.7504 34 25.2591 33.7893 25.6342 33.4142C26.0093 33.0391 26.22 32.5304 26.22 32V31.82C26.2204 31.4693 26.3129 31.1248 26.4885 30.8212C26.664 30.5175 26.9163 30.2654 27.22 30.09L27.65 29.84C27.954 29.6645 28.2989 29.5721 28.65 29.5721C29.0011 29.5721 29.346 29.6645 29.65 29.84L29.8 29.92C30.2589 30.1847 30.8042 30.2566 31.316 30.1197C31.8278 29.9828 32.2645 29.6485 32.53 29.19L32.75 28.8C33.0147 28.3411 33.0866 27.7958 32.9497 27.284C32.8128 26.7722 32.4785 26.3356 32.02 26.07L31.87 25.99C31.5648 25.8138 31.3116 25.5601 31.136 25.2545C30.9604 24.949 30.8686 24.6024 30.87 24.25V23.75C30.8686 23.3976 30.9604 23.051 31.136 22.7455C31.3116 22.4399 31.5648 22.1862 31.87 22.01L32.02 21.92C32.4785 21.6544 32.8128 21.2178 32.9497 20.706C33.0866 20.1942 33.0147 19.6489 32.75 19.19L32.53 18.81C32.2645 18.3515 31.8278 18.0172 31.316 17.8803C30.8042 17.7434 30.2589 17.8153 29.8 18.08L29.65 18.16C29.346 18.3355 29.0011 18.4279 28.65 18.4279C28.2989 18.4279 27.954 18.3355 27.65 18.16L27.22 17.91C26.9163 17.7346 26.664 17.4825 26.4885 17.1788C26.3129 16.8752 26.2204 16.5307 26.22 16.18V16C26.22 15.4696 26.0093 14.9609 25.6342 14.5858C25.2591 14.2107 24.7504 14 24.22 14Z" stroke="#4346EF" stroke-width="2" stroke-linecap="round" stroke-linejoin="round"/>
<path d="M24 27C25.6569 27 27 25.6569 27 24C27 22.3431 25.6569 21 24 21C22.3431 21 21 22.3431 21 24C21 25.6569 22.3431 27 24 27Z" stroke="#4346EF" stroke-width="2" stroke-linecap="round" stroke-linejoin="round"/>
</svg>
